<?xml version="1.0"?>
<svg xmlns="http://www.w3.org/2000/svg" viewBox="0 0 16 16">
    <path d="M 0 3 L 0 4 L 1.2675781 4 L 5.5761719 12.900391 C 5.6051719 12.960391 5.6654219 12.998 5.7324219 13 C 5.8044219 12.999 5.8605781 12.965203 5.8925781 12.908203 L 8.1210938 8.8847656 L 10.1875 12.904297 C 10.2175 12.963297 10.280656 13 10.347656 13 L 10.349609 13 C 10.418609 13 10.478813 12.960391 10.507812 12.900391 L 14.771484 4 L 16 4 L 16 3 L 13 3 L 13 4 L 13.626953 4 L 10.564453 10.673828 L 8.9316406 7.3808594 L 10.830078 4 L 12 4 L 12 3 L 9 3 L 9 4 L 9.6796875 4 L 8.4121094 6.2832031 L 7.3476562 4 L 8 4 L 8 3 L 5 3 L 5 4 L 5.6738281 4 L 7.5820312 7.7871094 L 6.0019531 10.683594 L 3.0488281 4 L 4 4 L 4 3 L 0 3 z"/>
</svg>
